<?xml version="1.0" encoding="utf-8"?>
<!-- Generator: Adobe Illustrator 19.0.0, SVG Export Plug-In . SVG Version: 6.00 Build 0)  -->
<svg version="1.1" id="Layer_1" xmlns="http://www.w3.org/2000/svg" xmlns:xlink="http://www.w3.org/1999/xlink" x="0px" y="0px"
	 viewBox="0 0 128 128" style="enable-background:new 0 0 128 128;" xml:space="preserve">
<style type="text/css">
	.st0{fill:#C9E08F;}
	.st1{fill:#8EC641;}
</style>
<g id="XMLID_165_">
	<path id="XMLID_101_" class="st0" d="M115.8,72.9l0-47.5H112v41.6l0,7.8c0,1.1-0.3,1.9-0.9,2.5c-1,0.9-2.6,1.1-3.3,1.1H91.5l0,16.5
		c0,0,0.1,2.1-1.2,3.5c-0.6,0.6-1.4,1-2.3,1.2c-0.9,0.1-1.9,0.1-2.8,0.1l-3.2,0l-65.8,0v-73h-3.8v76.9h68.3c0,0,7.3,0,8-0.1
		c8.2-0.7,14.7-3.6,19.4-8.6C116.5,85.8,115.9,73.4,115.8,72.9L115.8,72.9z M105.3,92.1c-2.8,2.9-6.3,5-10.6,6.2
		c0.6-1.7,0.6-3.2,0.6-3.7V82.1l12.5,0c0.2,0,1.6,0,3.2-0.5C110,85,108.4,88.8,105.3,92.1z"/>
	<g id="XMLID_1_">
		<path id="XMLID_95_" class="st1" d="M60.1,54.6c1.2,2.2,1.8,5.3,1.8,9.2c0,3.7-0.5,6.7-1.6,9.1c-1.6,3.4-4.1,5.2-7.6,5.2
			c-3.2,0-5.5-1.4-7.1-4.2c-1.3-2.4-1.9-5.5-1.9-9.5c0-3.1,0.4-5.7,1.2-7.9c1.5-4.1,4.1-6.2,7.9-6.2C56.1,50.3,58.5,51.7,60.1,54.6z
			 M56.7,72.6c1-1.6,1.5-4.5,1.5-8.7c0-3.1-0.4-5.6-1.1-7.6c-0.7-2-2.2-3-4.3-3c-2,0-3.4,0.9-4.3,2.8c-0.9,1.9-1.4,4.7-1.4,8.3
			c0,2.8,0.3,5,0.9,6.6c0.9,2.6,2.4,3.8,4.6,3.8C54.3,74.9,55.7,74.2,56.7,72.6z"/>
		<path id="XMLID_130_" class="st1" d="M66.1,71.2c0.8-1.7,2.4-3.3,4.8-4.7l3.6-2.1c1.6-0.9,2.7-1.7,3.3-2.4c1-1,1.5-2.2,1.5-3.6
			c0-1.6-0.5-2.8-1.4-3.8c-0.9-0.9-2.2-1.4-3.7-1.4c-2.3,0-3.9,0.9-4.7,2.6c-0.5,0.9-0.7,2.3-0.8,3.9h-3.4c0-2.4,0.5-4.3,1.3-5.8
			c1.4-2.6,4-3.9,7.6-3.9c3,0,5.2,0.8,6.6,2.5c1.4,1.7,2.1,3.5,2.1,5.6c0,2.2-0.7,4-2.2,5.5c-0.9,0.9-2.4,2-4.6,3.2l-2.5,1.4
			c-1.2,0.7-2.2,1.3-2.8,1.9c-1.2,1.1-2,2.3-2.3,3.6h14.5v3.2H64.6C64.8,75,65.2,73,66.1,71.2z"/>
	</g>
	<rect id="XMLID_555_" x="12.4" y="13.4" class="st1" width="103.5" height="20.9"/>
</g>
</svg>
