<?xml version="1.0" encoding="utf-8"?>
<!-- Generator: Adobe Illustrator 19.0.0, SVG Export Plug-In . SVG Version: 6.00 Build 0)  -->
<svg version="1.1" id="Layer_1" xmlns="http://www.w3.org/2000/svg" xmlns:xlink="http://www.w3.org/1999/xlink" x="0px" y="0px"
	 viewBox="0 0 128 128" style="enable-background:new 0 0 128 128;" xml:space="preserve">
<style type="text/css">
	.st0{fill:none;stroke:#06B29E;stroke-width:6;stroke-miterlimit:10;}
	.st1{fill:#06B29E;}
	.st2{fill:url(#XMLID_2_);}
	.st3{fill:url(#XMLID_3_);}
</style>
<g id="XMLID_144_">
	<g id="XMLID_1126_">
		<circle id="XMLID_1178_" class="st0" cx="51.5" cy="51.4" r="28.7"/>
		<path id="XMLID_1130_" class="st1" d="M106.2,93.2L88.7,75.8c-2.3-2.3-5.9-2.3-8.2,0l0,0l-6.2-6.2l-4.6,4.6l6.2,6.2l0,0
			c-2.3,2.3-2.3,5.9,0,8.2l17.4,17.4c2.3,2.3,5.9,2.3,8.2,0l4.6-4.6C108.4,99.2,108.4,95.5,106.2,93.2z"/>
	</g>
	<g id="XMLID_1104_">
		<linearGradient id="XMLID_2_" gradientUnits="userSpaceOnUse" x1="51.5458" y1="41.6636" x2="51.5458" y2="202.3978">
			<stop  offset="0" style="stop-color:#FFFFFF"/>
			<stop  offset="0.1189" style="stop-color:#F5F5F6"/>
			<stop  offset="0.2522" style="stop-color:#E2E3E6"/>
			<stop  offset="0.3925" style="stop-color:#C8CBD2"/>
			<stop  offset="0.5377" style="stop-color:#A8ADB8"/>
			<stop  offset="0.6866" style="stop-color:#838D9C"/>
			<stop  offset="0.8387" style="stop-color:#5C6C7E"/>
			<stop  offset="0.9907" style="stop-color:#2D4E62"/>
			<stop  offset="1" style="stop-color:#294C60"/>
		</linearGradient>
		<path id="XMLID_1106_" class="st2" d="M64.4,62.5c0-3.7-5-6.7-11.2-6.7h-3.3c-6.2,0-11.2,3-11.2,6.7v4.1h25.6V62.5z"/>
		<linearGradient id="XMLID_3_" gradientUnits="userSpaceOnUse" x1="51.5458" y1="41.6636" x2="51.5458" y2="202.3978">
			<stop  offset="0" style="stop-color:#FFFFFF"/>
			<stop  offset="0.1189" style="stop-color:#F5F5F6"/>
			<stop  offset="0.2522" style="stop-color:#E2E3E6"/>
			<stop  offset="0.3925" style="stop-color:#C8CBD2"/>
			<stop  offset="0.5377" style="stop-color:#A8ADB8"/>
			<stop  offset="0.6866" style="stop-color:#838D9C"/>
			<stop  offset="0.8387" style="stop-color:#5C6C7E"/>
			<stop  offset="0.9907" style="stop-color:#2D4E62"/>
			<stop  offset="1" style="stop-color:#294C60"/>
		</linearGradient>
		<circle id="XMLID_1105_" class="st3" cx="51.5" cy="44.1" r="8.9"/>
	</g>
</g>
</svg>
